<svg width="14" height="12" viewBox="0 0 14 12" fill="none" xmlns="http://www.w3.org/2000/svg">
<path d="M13.4163 0.749999C12.8577 1.14403 12.2392 1.4454 11.5847 1.6425C11.2334 1.23855 10.7665 0.952236 10.2471 0.822289C9.72777 0.692342 9.18105 0.72503 8.68089 0.91593C8.18073 1.10683 7.75127 1.44673 7.45058 1.88967C7.1499 2.3326 6.9925 2.85719 6.99967 3.3925V3.97583C5.97454 4.00241 4.95875 3.77506 4.04276 3.31401C3.12678 2.85296 2.33903 2.17254 1.74967 1.33333C1.74967 1.33333 -0.583659 6.58333 4.66634 8.91667C3.46498 9.73215 2.03385 10.141 0.583008 10.0833C5.83301 13 12.2497 10.0833 12.2497 3.375C12.2491 3.21251 12.2335 3.05043 12.203 2.89083C12.7984 2.3037 13.2185 1.56241 13.4163 0.749999V0.749999Z" stroke="#A7A7A7" stroke-width="1.16667" stroke-linecap="round" stroke-linejoin="round"/>
</svg>
